<svg xmlns="http://www.w3.org/2000/svg" xmlns:xlink="http://www.w3.org/1999/xlink"><defs><style>.cls-1{fill:none;stroke:#f9572e;stroke-linecap:round;stroke-linejoin:round;stroke-width:20px;}</style><style>.cls-1{fill:#63d2c1;}</style><style>.cls-1{fill:#fff;}</style><style>.cls-1{fill:#fff;fill-rule:evenodd;}</style><style>.cls-1{fill:url(#linear-gradient);}.cls-2{fill:url(#linear-gradient-2);}.cls-3{fill:url(#linear-gradient-3);}.cls-4{fill:#231f20;}</style><linearGradient id="linear-gradient" x1="78.09" y1="-18046.39" x2="77.88" y2="-18082.4" gradientTransform="matrix(1, 0, 0, -1, 0, -18046.49)" gradientUnits="userSpaceOnUse"><stop offset="0" stop-color="#e07053"/><stop offset="1" stop-color="#ff8363"/></linearGradient><linearGradient id="linear-gradient-2" x1="52.02" y1="-18067.97" x2="81.17" y2="-18113.01" gradientTransform="matrix(1, 0, 0, -1, 0, -18046.49)" gradientUnits="userSpaceOnUse"><stop offset="0" stop-color="#ff6640"/><stop offset="1" stop-color="#d94b27"/></linearGradient><linearGradient id="linear-gradient-3" x1="101.14" y1="-18059.76" x2="63.59" y2="-18119.04" gradientTransform="matrix(1, 0, 0, -1, 0, -18046.49)" gradientUnits="userSpaceOnUse"><stop offset="0" stop-color="#eb4015"/><stop offset="1" stop-color="#d94b27"/></linearGradient><style>.cls-1{fill:#f9572e;stroke:#f9572e;stroke-miterlimit:10;stroke-width:0.7px;fill-rule:evenodd;}</style><style>.cls-1{fill:#f9572e;stroke:#f9572e;stroke-miterlimit:10;stroke-width:0.5px;}</style><style>.cls-1{fill:none;stroke-linecap:round;stroke-linejoin:round;stroke-width:4px;stroke:url(#linear-gradient);}</style><linearGradient id="linear-gradient" y1="-18740.47" x2="113.38" y2="-18740.47" gradientTransform="matrix(1, 0, 0, -1, 0, -18675.33)" gradientUnits="userSpaceOnUse"><stop offset="0" stop-color="#fa9685"/><stop offset="1" stop-color="#f9572e"/></linearGradient><style>.cls-1{fill:none;stroke:#f9572e;stroke-miterlimit:10;stroke-width:2px;}</style><style>.cls-1{fill:none;stroke:#f9572e;stroke-miterlimit:10;stroke-width:3px;}</style><style>.cls-1{fill:none;stroke:#f9572e;stroke-miterlimit:10;stroke-width:3px;}</style><style>.cls-1{fill:#fff;}</style></defs><symbol id="icon--check" viewBox="0 0 213.69 147.75"><title>icon--check</title><g id="&#x421;&#x43B;&#x43E;&#x439;_2" data-name="&#x421;&#x43B;&#x43E;&#x439; 2"><g id="Content"><polyline class="cls-1" points="10 71.81 75.94 137.75 203.69 10"/></g></g></symbol><symbol id="icon--door" viewBox="0 0 45 68.12"><title>icon--door</title><g id="&#x421;&#x43B;&#x43E;&#x439;_2" data-name="&#x421;&#x43B;&#x43E;&#x439; 2"><g id="Content"><path class="cls-1" d="M0,61.56a1.76,1.76,0,0,0,1.76,1.76l9.78,0a1.76,1.76,0,0,0,1.76-1.75V6.48a1.76,1.76,0,0,0-1.76-1.76H1.76A1.76,1.76,0,0,0,0,6.48Z"/><path class="cls-1" d="M17.64,0a1.42,1.42,0,0,0-1.73,1.44V66.64a1.42,1.42,0,0,0,1.73,1.45l25.6-4.6A2.18,2.18,0,0,0,45,61.43l0-54.7a2.19,2.19,0,0,0-1.73-2.07ZM41.78,58.75a2.19,2.19,0,0,1-1.73,2.07L20.84,64.27a1.42,1.42,0,0,1-1.73-1.45V5.3a1.42,1.42,0,0,1,1.73-1.45L40.07,7.33A2.19,2.19,0,0,1,41.8,9.4Z"/><path class="cls-1" d="M24.27,34.06a2.09,2.09,0,0,1-1.77,2.3,2.09,2.09,0,0,1-1.77-2.3,2.09,2.09,0,0,1,1.77-2.3A2.09,2.09,0,0,1,24.27,34.06Z"/></g></g></symbol><symbol id="icon--fb" viewBox="0 0 11.45 22.5"><title>icon--fb</title><g id="&#x421;&#x43B;&#x43E;&#x439;_2" data-name="&#x421;&#x43B;&#x43E;&#x439; 2"><g id="Content"><path class="cls-1" d="M11.45,8H7.33V6S7.1,4.12,8.44,4.12h2.71V0H6.53S2.66,0,2.66,3.87c0,.83,0,2.35,0,4.17H0v3.31H2.64c0,5.28,0,11.15,0,11.15H7.33V11.35h3.12Z"/></g></g></symbol><symbol id="icon--inst" viewBox="0 0 22.5 22.5"><title>icon--inst</title><g id="&#x421;&#x43B;&#x43E;&#x439;_2" data-name="&#x421;&#x43B;&#x43E;&#x439; 2"><g id="Content"><path class="cls-1" d="M2.89,0H19.61A2.82,2.82,0,0,1,22.5,2.89V19.61a2.82,2.82,0,0,1-2.89,2.89H2.89A2.82,2.82,0,0,1,0,19.61V2.89A2.82,2.82,0,0,1,2.89,0Zm13.5,2.5a1,1,0,0,0-1,1V5.94a1,1,0,0,0,1,1h2.54a1,1,0,0,0,1-1V3.51a1,1,0,0,0-1-1Zm3.57,7H18a6.77,6.77,0,0,1,.29,1.93,6.89,6.89,0,0,1-7,6.77,6.88,6.88,0,0,1-7-6.77,6.44,6.44,0,0,1,.29-1.93H2.5V19a.89.89,0,0,0,.9.89H19.06A.89.89,0,0,0,20,19Zm-8.69-2.7A4.46,4.46,0,0,0,6.75,11.2a4.46,4.46,0,0,0,4.52,4.38,4.45,4.45,0,0,0,4.52-4.38,4.45,4.45,0,0,0-4.52-4.38Z"/></g></g></symbol><symbol id="icon--logo" viewBox="0 0 200 54.34"><title>icon-logo</title><g id="&#x421;&#x43B;&#x43E;&#x439;_2" data-name="&#x421;&#x43B;&#x43E;&#x439; 2"><g id="Content"><polygon class="cls-1" points="106.15 9.06 94.95 0 72.77 17.86 61.08 8.44 49.88 17.46 72.75 35.88 72.77 35.86 72.8 35.88 106.15 9.06"/><polygon class="cls-2" points="72.77 54.34 49.88 35.86 49.88 17.46 72.77 35.86 72.77 54.34"/><polygon class="cls-3" points="106.15 27.54 72.77 54.34 72.77 35.86 106.15 9.06 106.15 27.54"/><path class="cls-4" d="M0,18.13H10.54V21H3.25v4.11H10V28H3.25v6.71H0Z"/><path class="cls-4" d="M13.53,31.85h4.2V21h-4.2V18.13H25.21V21H21V31.85h4.22v2.89H13.53Z"/><path class="cls-4" d="M32.31,26.22l-4.7-8.09h3.8l2.42,4.51.54,1.21.53-1.21,2.47-4.51H41l-4.77,8.12,4.92,8.49h-3.8L34.85,30l-.64-1.29L33.59,30l-2.66,4.74H27.25Z"/><path class="cls-4" d="M114.28,18.29c.66-.12,1.4-.22,2.19-.29s1.6-.11,2.39-.11a16,16,0,0,1,2.48.2,6.12,6.12,0,0,1,2.24.81,4.61,4.61,0,0,1,1.63,1.68,5.56,5.56,0,0,1,.63,2.82,5.64,5.64,0,0,1-.55,2.6,5.15,5.15,0,0,1-1.44,1.78,6.21,6.21,0,0,1-2.06,1,9,9,0,0,1-2.38.32h-.93l-.56,0-.39-.05v5.72h-3.25Zm4.84,2.4a8.64,8.64,0,0,0-.9,0c-.29,0-.51.05-.69.08V26.2l.29.05.4,0h.71a6.75,6.75,0,0,0,1.27-.12,3,3,0,0,0,1.13-.43,2.31,2.31,0,0,0,.79-.9,3.18,3.18,0,0,0,.3-1.49,2.62,2.62,0,0,0-.28-1.29,2.28,2.28,0,0,0-.75-.82,2.85,2.85,0,0,0-1.06-.43A6.06,6.06,0,0,0,119.12,20.69Z"/><path class="cls-4" d="M128.45,18.13h10.9V21H131.7v3.87h7.05v2.9H131.7v4.06h7.77v2.89h-11Z"/><path class="cls-4" d="M151.55,25.89l.12-2.59h-.14l-2.66,4.35h-.57l-2.78-4.35h-.12l.14,2.33v9.11h-3.08V18.13h3.3l2.85,4.6h.09l2.83-4.6h3.27V34.74h-3.25Z"/><path class="cls-4" d="M157.32,26.44a15.59,15.59,0,0,1,.38-3.64,7.63,7.63,0,0,1,1.16-2.71,5.24,5.24,0,0,1,2-1.7,6.72,6.72,0,0,1,5.66.05,5.26,5.26,0,0,1,1.94,1.78A8.22,8.22,0,0,1,169.51,23a16.46,16.46,0,0,1,.34,3.49,11.27,11.27,0,0,1-1.55,6.35,5.34,5.34,0,0,1-4.72,2.29,6.15,6.15,0,0,1-2.9-.64,5.38,5.38,0,0,1-2-1.78,7.78,7.78,0,0,1-1.08-2.74A17.07,17.07,0,0,1,157.32,26.44Zm3.42,0c0,.8,0,1.55.1,2.25a7,7,0,0,0,.41,1.82,2.8,2.8,0,0,0,.85,1.22,2.29,2.29,0,0,0,1.48.45,2.52,2.52,0,0,0,1.38-.34,2.4,2.4,0,0,0,.88-1.06A5.83,5.83,0,0,0,166.3,29a21,21,0,0,0,.13-2.55c0-.78,0-1.52-.08-2.21A6.71,6.71,0,0,0,166,22.4a2.93,2.93,0,0,0-.87-1.25,2.32,2.32,0,0,0-1.52-.46,2.21,2.21,0,0,0-2.25,1.45A11.81,11.81,0,0,0,160.74,26.44Z"/><path class="cls-4" d="M181.22,27.79h-5.36v7h-3.25V18.13h3.25v6.76h5.36V18.13h3.25V34.74h-3.25Z"/><path class="cls-4" d="M189.17,32.13h2.71V20.74H189.6v2.87H187V18.13h13v5.48h-2.61V20.74h-2.26V32.13h2.69v2.61h-8.65Z"/></g></g></symbol><symbol id="icon--mail" viewBox="0 0 30.7 20.37"><title>icon--mail</title><g id="&#x421;&#x43B;&#x43E;&#x439;_2" data-name="&#x421;&#x43B;&#x43E;&#x439; 2"><g id="Content"><path class="cls-1" d="M30.35,2.84a2.47,2.47,0,0,0-.66-1.66s0,0,0,0l0,0A2.49,2.49,0,0,0,27.83.35h-25A2.53,2.53,0,0,0,1,1.13s0,0,0,0a0,0,0,0,0,0,0A2.42,2.42,0,0,0,.35,2.84V17.52A2.48,2.48,0,0,0,1,19.22l0,0s0,0,0,0A2.56,2.56,0,0,0,2.87,20h25a2.49,2.49,0,0,0,1.8-.77h0s0,0,0,0a2.48,2.48,0,0,0,.68-1.7ZM20.53,9.41l8.65-7.17a1.5,1.5,0,0,1,.13.6V17.52a1.42,1.42,0,0,1-.11.55Zm7.3-8a1.55,1.55,0,0,1,.61.13L15.35,12.36,2.26,1.51a1.55,1.55,0,0,1,.61-.13ZM1.5,18.07a1.42,1.42,0,0,1-.11-.55V2.84a1.5,1.5,0,0,1,.13-.6l8.65,7.17ZM2.87,19a1.46,1.46,0,0,1-.66-.16L11,10.07l4,3.35a.51.51,0,0,0,.66,0l4.05-3.35,8.76,8.76a1.46,1.46,0,0,1-.66.16Z"/></g></g></symbol><symbol id="icon--phone" viewBox="0 0 24.5 24.48"><title>icon--phone</title><g id="&#x421;&#x43B;&#x43E;&#x439;_2" data-name="&#x421;&#x43B;&#x43E;&#x439; 2"><g id="Content"><path class="cls-1" d="M18,24.23a11.22,11.22,0,0,1-3.32-.58A21.37,21.37,0,0,1,6.32,18.2C2.11,14,.29,10.74.25,7.35a.67.67,0,0,1,.66-.68h0a.66.66,0,0,1,.67.66c0,3,1.74,6,5.68,9.92,6,6,10.83,5.65,11.08,5.62a4.83,4.83,0,0,0,1.23-.31,4.78,4.78,0,0,0,1.21-.68l.1-.07.82-.8a1.09,1.09,0,0,0,0-1.53l-3.36-3.36a1.09,1.09,0,0,0-1.53,0l-1.69,1.7a.67.67,0,0,1-.8.11L14,17.78A17.23,17.23,0,0,1,9.8,14.72a17.31,17.31,0,0,1-3.06-4.23l0-.06-.14-.26a.68.68,0,0,1,.1-.81l1.7-1.69a1.09,1.09,0,0,0,.05-1.53L5,2.77a1,1,0,0,0-.74-.29,1.15,1.15,0,0,0-.78.33l-.89.95a4.19,4.19,0,0,0-.45.7.65.65,0,0,1-.9.28A.67.67,0,0,1,1,3.84a6.73,6.73,0,0,1,.6-.93l0-.05.92-1h0a2.45,2.45,0,0,1,1.71-.73A2.35,2.35,0,0,1,6,1.82L9.36,5.19a2.42,2.42,0,0,1,0,3.42L8,10a16.07,16.07,0,0,0,2.78,3.82,16.18,16.18,0,0,0,3.82,2.78l1.34-1.34a2.43,2.43,0,0,1,3.42,0l3.37,3.36a2.44,2.44,0,0,1,0,3.43h0l-1,.95a.79.79,0,0,1-.23.14,5.85,5.85,0,0,1-1.39.76,6.23,6.23,0,0,1-1.57.39h0C18.42,24.21,18.26,24.23,18,24.23Zm6.24-11.55A12.45,12.45,0,0,0,11.82.25a.67.67,0,1,0,0,1.34A11.11,11.11,0,0,1,22.91,12.68a.67.67,0,0,0,1.34,0Zm-4.36-.51a7.57,7.57,0,0,0-7.56-7.56.68.68,0,0,0,0,1.35,6.21,6.21,0,0,1,6.21,6.21.68.68,0,0,0,1.35,0Z"/></g></g></symbol><symbol id="icon--play" viewBox="0 0 113.38 130.3"><title>icon-play</title><g id="&#x421;&#x43B;&#x43E;&#x439;_2" data-name="&#x421;&#x43B;&#x43E;&#x439; 2"><g id="Content"><polygon class="cls-1" points="2 2 111.38 65.15 2 128.29 2 2"/></g></g></symbol><symbol id="icon--slide-down" viewBox="0 0 41.41 31.19"><title>icon--slide-down</title><g id="&#x421;&#x43B;&#x43E;&#x439;_2" data-name="&#x421;&#x43B;&#x43E;&#x439; 2"><g id="Content"><path class="cls-1" d="M40.71,11.35l-18,18a2.79,2.79,0,0,1-3.95,0l-18-18"/><path class="cls-1" d="M30.71.71l-9,9a1.41,1.41,0,0,1-2,0l-9-9"/></g></g></symbol><symbol id="icon--slider-left" viewBox="0 0 22.77 45.03"><title>icon--slider-left</title><g id="&#x421;&#x43B;&#x43E;&#x439;_2" data-name="&#x421;&#x43B;&#x43E;&#x439; 2"><g id="Content"><path class="cls-1" d="M21.71,44,2.38,24.64a3,3,0,0,1,0-4.24L21.71,1.06"/></g></g></symbol><symbol id="icon--slider-right" viewBox="0 0 22.77 45.03"><title>icon--slider-right</title><g id="&#x421;&#x43B;&#x43E;&#x439;_2" data-name="&#x421;&#x43B;&#x43E;&#x439; 2"><g id="Content"><path class="cls-1" d="M1.06,1.06,20.4,20.4a3,3,0,0,1,0,4.24L1.06,44"/></g></g></symbol><symbol id="icon--vk" viewBox="0 0 28.48 16.25"><title>icon--vk</title><g id="&#x421;&#x43B;&#x43E;&#x439;_2" data-name="&#x421;&#x43B;&#x43E;&#x439; 2"><g id="Content"><path class="cls-1" d="M28.33,14.68l-.1-.19a14.84,14.84,0,0,0-2.83-3.28l0,0h0l0,0h0a15.15,15.15,0,0,1-1.2-1.21,1.13,1.13,0,0,1-.21-1.2,11.06,11.06,0,0,1,1.33-1.95c.41-.52.73-.94,1-1.26q2.57-3.41,2.22-4.36L28.35,1a.89.89,0,0,0-.46-.25,2.38,2.38,0,0,0-.95,0l-4.27,0a.58.58,0,0,0-.29,0l-.2,0-.07,0-.06.05a.71.71,0,0,0-.16.15,1.1,1.1,0,0,0-.15.26,24,24,0,0,1-1.59,3.34c-.36.61-.7,1.14-1,1.59a7.55,7.55,0,0,1-.77,1,5.9,5.9,0,0,1-.56.51c-.17.13-.3.18-.39.16l-.25-.06a1,1,0,0,1-.33-.36,1.53,1.53,0,0,1-.17-.58q0-.34-.06-.6c0-.17,0-.41,0-.71s0-.52,0-.62c0-.38,0-.79,0-1.23s0-.79,0-1,0-.53,0-.82a3.73,3.73,0,0,0-.05-.67A2.08,2.08,0,0,0,16.5.75.79.79,0,0,0,16.2.4a1.54,1.54,0,0,0-.5-.21,10.5,10.5,0,0,0-2-.19,9.58,9.58,0,0,0-3.54.36A2.18,2.18,0,0,0,9.59.8c-.17.22-.2.34-.07.36a1.82,1.82,0,0,1,1.26.64l.09.17a2.87,2.87,0,0,1,.21.69,6.66,6.66,0,0,1,.13,1.08,11.34,11.34,0,0,1,0,1.85c-.05.52-.1.92-.14,1.2a2.25,2.25,0,0,1-.2.7,3,3,0,0,1-.18.33.22.22,0,0,1-.07.07,1.1,1.1,0,0,1-.4.08,1,1,0,0,1-.51-.21,3.9,3.9,0,0,1-.61-.57,8.48,8.48,0,0,1-.72-1,15.16,15.16,0,0,1-.83-1.54L7.31,4.2C7.16,3.92,7,3.52,6.7,3S6.22,2,6,1.46A1,1,0,0,0,5.66,1l-.07,0A1.23,1.23,0,0,0,5.35.81,1.91,1.91,0,0,0,5,.71L1,.74A1.07,1.07,0,0,0,.1,1L0,1.11a.65.65,0,0,0,0,.24,1.17,1.17,0,0,0,.09.4c.59,1.4,1.24,2.74,1.93,4S3.33,8.12,3.84,8.91s1,1.54,1.57,2.24S6.3,12.3,6.47,12.5l.41.45.37.35a9.74,9.74,0,0,0,1.05.86c.46.33,1,.65,1.52,1a7.87,7.87,0,0,0,1.95.79,6.86,6.86,0,0,0,2.17.24h1.7a1.13,1.13,0,0,0,.79-.32l.06-.08a.78.78,0,0,0,.11-.27,1.7,1.7,0,0,0,0-.41,4.61,4.61,0,0,1,.1-1.15,3.15,3.15,0,0,1,.25-.77,1.61,1.61,0,0,1,.32-.43,1.63,1.63,0,0,1,.25-.22l.12,0a1,1,0,0,1,.84.23,4.84,4.84,0,0,1,.9.86c.28.34.62.72,1,1.15a6.94,6.94,0,0,0,1,1l.29.17a3.78,3.78,0,0,0,.77.33,1.78,1.78,0,0,0,.83.08l3.8-.06a1.7,1.7,0,0,0,.87-.19.73.73,0,0,0,.38-.41,1.05,1.05,0,0,0,0-.5,1.73,1.73,0,0,0-.1-.39Z"/></g></g></symbol></svg>